<svg xmlns="http://www.w3.org/2000/svg" viewBox="0 0 512 512">
  <defs>
    <linearGradient id="gold" x1="0" y1="0" x2="1" y2="1">
      <stop offset="0%" stop-color="#D8B36B"/>
      <stop offset="100%" stop-color="#A67C33"/>
    </linearGradient>
    <linearGradient id="bg" x1="0" y1="0" x2="0" y2="1">
      <stop offset="0%" stop-color="#122652"/>
      <stop offset="100%" stop-color="#0B1B3A"/>
    </linearGradient>
  </defs>
  <rect x="16" y="16" width="480" height="480" rx="96" fill="url(#bg)"/>
  <g transform="translate(130,150)">
    <rect x="118" y="18" width="20" height="80" rx="10" fill="url(#gold)"/>
    <circle cx="128" cy="12" r="18" fill="url(#gold)"/>
    <rect x="14" y="88" width="228" height="36" rx="18" fill="url(#gold)"/>
    <path d="M64,128 h128 c14,0 26,12 24,26 l-14,92 c-2,12-12,20-24,20H78c-12,0-22-8-24-20l-14-92c-2-14 10-26 24-26z" fill="url(#gold)"/>
  </g>
</svg>